<svg xmlns="http://www.w3.org/2000/svg" display="none">
    <!-- Plus Icon -->
    <symbol id="plus-icon" viewBox="0 0 20 20" fill="currentColor">
        <path fill-rule="evenodd" d="M10 3a1 1 0 011 1v5h5a1 1 0 110 2h-5v5a1 1 0 11-2 0v-5H4a1 1 0 110-2h5V4a1 1 0 011-1z" clip-rule="evenodd"/>
    </symbol>

    <!-- Edit Icon -->
    <symbol id="edit-icon" viewBox="0 0 24 24" fill="currentColor">
        <path d="M4 20h4l10.7-10.7c.3-.3.3-.7 0-1l-2-2c-.3-.3-.7-.3-1 0L5 17v3zM20.7 7.3c.4-.4.4-1 0-1.4l-2-2a1 1 0 00-1.4 0L16 3.6l3.4 3.4 1.3-1.3z"/>
    </symbol>

    <!-- Delete Icon -->
    <symbol id="delete-icon" viewBox="0 0 24 24" fill="currentColor">
        <path d="M6 19c0 1.1.9 2 2 2h8c1.1 0 2-.9 2-2V7H6v12zM19 4h-4l-1-1H10L9 4H5v2h14V4z"/>
    </symbol>

    <!-- List Warehouses Icon -->
    <symbol id="warehouse-icon" viewBox="0 0 24 24" fill="currentColor">
        <path d="M3 10v10c0 1.1.9 2 2 2h14c1.1 0 2-.9 2-2V10l-9-6-9 6zM5 10l7-4.67L19 10v10H5V10zm2 3h10v7H7v-7z"/>
    </symbol>
</svg>